<svg width="190" height="50" viewBox="0 0 190 50" fill="none" xmlns="http://www.w3.org/2000/svg">
<path d="M67.332 42.416C66.2573 42.416 65.4253 42.1213 64.836 41.532C64.2813 40.908 64.004 40.0587 64.004 38.984V8.356C64.004 7.24667 64.2813 6.39733 64.836 5.808C65.4253 5.21866 66.2573 4.924 67.332 4.924C68.4067 4.924 69.2213 5.21866 69.776 5.808C70.3653 6.39733 70.66 7.24667 70.66 8.356V20.628H89.536V8.356C89.536 7.24667 89.8133 6.39733 90.368 5.808C90.9573 5.21866 91.7893 4.924 92.864 4.924C93.9387 4.924 94.7533 5.21866 95.308 5.808C95.8973 6.39733 96.192 7.24667 96.192 8.356V38.984C96.192 40.0587 95.8973 40.908 95.308 41.532C94.7533 42.1213 93.9387 42.416 92.864 42.416C91.7893 42.416 90.9573 42.1213 90.368 41.532C89.8133 40.908 89.536 40.0587 89.536 38.984V26.192H70.66V38.984C70.66 40.0587 70.3827 40.908 69.828 41.532C69.2733 42.1213 68.4413 42.416 67.332 42.416ZM111.971 42.52C110.133 42.52 108.487 42.1733 107.031 41.48C105.609 40.752 104.483 39.7813 103.651 38.568C102.853 37.3547 102.455 35.9853 102.455 34.46C102.455 32.588 102.94 31.1147 103.911 30.04C104.881 28.9307 106.459 28.1333 108.643 27.648C110.827 27.1627 113.756 26.92 117.431 26.92H120.031V30.664H117.483C115.333 30.664 113.617 30.768 112.335 30.976C111.052 31.184 110.133 31.548 109.579 32.068C109.059 32.5533 108.799 33.2467 108.799 34.148C108.799 35.292 109.197 36.228 109.995 36.956C110.792 37.684 111.901 38.048 113.323 38.048C114.467 38.048 115.472 37.788 116.339 37.268C117.24 36.7133 117.951 35.968 118.471 35.032C118.991 34.096 119.251 33.0213 119.251 31.808V25.828C119.251 24.0947 118.869 22.8467 118.107 22.084C117.344 21.3213 116.061 20.94 114.259 20.94C113.253 20.94 112.161 21.0613 110.983 21.304C109.839 21.5467 108.625 21.9627 107.343 22.552C106.684 22.864 106.095 22.9507 105.575 22.812C105.089 22.6733 104.708 22.396 104.431 21.98C104.153 21.5293 104.015 21.044 104.015 20.524C104.015 20.004 104.153 19.5013 104.431 19.016C104.708 18.496 105.176 18.1147 105.835 17.872C107.429 17.2133 108.955 16.7453 110.411 16.468C111.901 16.1907 113.253 16.052 114.467 16.052C116.963 16.052 119.008 16.4333 120.603 17.196C122.232 17.9587 123.445 19.12 124.243 20.68C125.04 22.2053 125.439 24.1813 125.439 26.608V39.088C125.439 40.1627 125.179 40.9947 124.659 41.584C124.139 42.1387 123.393 42.416 122.423 42.416C121.452 42.416 120.689 42.1387 120.135 41.584C119.615 40.9947 119.355 40.1627 119.355 39.088V36.592H119.771C119.528 37.8053 119.043 38.8627 118.315 39.764C117.621 40.6307 116.737 41.3067 115.663 41.792C114.588 42.2773 113.357 42.52 111.971 42.52ZM146.7 42.52C144.551 42.52 142.662 41.9827 141.032 40.908C139.438 39.8333 138.38 38.3947 137.86 36.592L138.432 35.292V39.088C138.432 40.1627 138.155 40.9947 137.6 41.584C137.046 42.1387 136.266 42.416 135.26 42.416C134.22 42.416 133.423 42.1387 132.868 41.584C132.314 40.9947 132.036 40.1627 132.036 39.088V8.2C132.036 7.12533 132.314 6.31066 132.868 5.756C133.423 5.20133 134.22 4.924 135.26 4.924C136.3 4.924 137.098 5.20133 137.652 5.756C138.242 6.31066 138.536 7.12533 138.536 8.2V21.72H137.912C138.467 20.0213 139.542 18.652 141.136 17.612C142.731 16.572 144.586 16.052 146.7 16.052C148.954 16.052 150.912 16.5893 152.576 17.664C154.24 18.7387 155.54 20.264 156.476 22.24C157.412 24.1813 157.88 26.5213 157.88 29.26C157.88 31.964 157.412 34.3213 156.476 36.332C155.54 38.308 154.223 39.8333 152.524 40.908C150.86 41.9827 148.919 42.52 146.7 42.52ZM144.88 37.58C146.163 37.58 147.29 37.268 148.26 36.644C149.231 36.02 149.976 35.1013 150.496 33.888C151.051 32.64 151.328 31.0973 151.328 29.26C151.328 26.4867 150.739 24.424 149.56 23.072C148.382 21.6853 146.822 20.992 144.88 20.992C143.598 20.992 142.471 21.304 141.5 21.928C140.53 22.5173 139.767 23.436 139.212 24.684C138.692 25.8973 138.432 27.4227 138.432 29.26C138.432 31.9987 139.022 34.0787 140.2 35.5C141.379 36.8867 142.939 37.58 144.88 37.58ZM174.812 42.52C172.177 42.52 169.889 41.9827 167.948 40.908C166.007 39.8333 164.499 38.308 163.424 36.332C162.349 34.3213 161.812 31.964 161.812 29.26C161.812 27.2147 162.107 25.3947 162.696 23.8C163.32 22.1707 164.204 20.784 165.348 19.64C166.492 18.4613 167.861 17.5773 169.456 16.988C171.051 16.364 172.836 16.052 174.812 16.052C177.447 16.052 179.735 16.5893 181.676 17.664C183.617 18.7387 185.125 20.264 186.2 22.24C187.275 24.216 187.812 26.556 187.812 29.26C187.812 31.3053 187.5 33.1427 186.876 34.772C186.287 36.4013 185.42 37.8053 184.276 38.984C183.132 40.128 181.763 41.012 180.168 41.636C178.573 42.2253 176.788 42.52 174.812 42.52ZM174.812 37.58C176.095 37.58 177.221 37.268 178.192 36.644C179.163 36.02 179.908 35.1013 180.428 33.888C180.983 32.64 181.26 31.0973 181.26 29.26C181.26 26.4867 180.671 24.424 179.492 23.072C178.313 21.6853 176.753 20.992 174.812 20.992C173.529 20.992 172.403 21.304 171.432 21.928C170.461 22.5173 169.699 23.436 169.144 24.684C168.624 25.8973 168.364 27.4227 168.364 29.26C168.364 31.9987 168.953 34.0787 170.132 35.5C171.311 36.8867 172.871 37.58 174.812 37.58Z" fill="black"/>
<path d="M0 12C0 5.37258 5.37258 0 12 0H38C44.6274 0 50 5.37258 50 12V38C50 44.6274 44.6274 50 38 50H12C5.37258 50 0 44.6274 0 38V12Z" fill="#09BF2F"/>
<g clip-path="url(#clip0_708_10)">
<g filter="url(#filter0_d_708_10)">
<path d="M19.58 32.5337L12.0463 25L9.48083 27.5474L19.58 37.6465L41.2596 15.9668L38.7123 13.4194L19.58 32.5337Z" fill="white"/>
</g>
</g>
<defs>
<filter id="filter0_d_708_10" x="6.48083" y="11.4194" width="39.7788" height="32.2271" filterUnits="userSpaceOnUse" color-interpolation-filters="sRGB">
<feFlood flood-opacity="0" result="BackgroundImageFix"/>
<feColorMatrix in="SourceAlpha" type="matrix" values="0 0 0 0 0 0 0 0 0 0 0 0 0 0 0 0 0 0 127 0" result="hardAlpha"/>
<feOffset dx="1" dy="2"/>
<feGaussianBlur stdDeviation="2"/>
<feColorMatrix type="matrix" values="0 0 0 0 0 0 0 0 0 0 0 0 0 0 0 0 0 0 0.25 0"/>
<feBlend mode="normal" in2="BackgroundImageFix" result="effect1_dropShadow_708_10"/>
<feBlend mode="normal" in="SourceGraphic" in2="effect1_dropShadow_708_10" result="shape"/>
</filter>
<clipPath id="clip0_708_10">
<rect width="43.3594" height="43.3594" fill="white" transform="translate(3.32031 3.32031)"/>
</clipPath>
</defs>
</svg>
