<svg width="402" height="116" viewBox="0 0 402 116" fill="none" xmlns="http://www.w3.org/2000/svg">
<path d="M68.4856 26.8395C69.8332 27.5099 71.3194 27.859 72.8261 27.859C74.3327 27.859 75.8189 27.5099 77.1665 26.8395L94.9314 17.9945C95.6719 17.626 96.4951 17.4522 97.3224 17.4897C98.1497 17.5272 98.9532 17.7748 99.6575 18.2088C100.361 18.6427 100.942 19.2488 101.345 19.9693C101.747 20.6898 101.958 21.5008 101.957 22.3251V84.0177C101.956 84.9149 101.705 85.7948 101.231 86.5581C100.756 87.3208 100.078 87.9379 99.2718 88.3387L77.1665 99.3442C75.8189 100.015 74.3327 100.364 72.8261 100.364C71.3194 100.364 69.8332 100.015 68.4856 99.3442L48.0361 89.1652C46.6883 88.4947 45.2023 88.1455 43.6956 88.1455C42.189 88.1455 40.703 88.4947 39.3552 89.1652L21.5905 98.0102C20.8494 98.379 20.0258 98.5525 19.1982 98.5148C18.3706 98.4771 17.5664 98.2294 16.8623 97.795C16.1581 97.36 15.5773 96.7533 15.1753 96.0324C14.7732 95.3114 14.5632 94.4994 14.5652 93.6747V31.987C14.5657 31.0896 14.8171 30.2101 15.2913 29.4469C15.7655 28.6837 16.4438 28.0671 17.2501 27.666L39.3552 16.6605C40.703 15.99 42.189 15.641 43.6956 15.641C45.2023 15.641 46.6883 15.99 48.0361 16.6605L68.4856 26.8395Z" stroke="#EEAF00" stroke-width="5.67" stroke-linecap="round" stroke-linejoin="round"/>
<path d="M72.826 27.8594V100.359" stroke="#EEAF00" stroke-width="5.67" stroke-linecap="round" stroke-linejoin="round"/>
<path d="M43.6957 15.6406V88.1409" stroke="#EEAF00" stroke-width="5.67" stroke-linecap="round" stroke-linejoin="round"/>
<path d="M170.316 40.6232C171.569 40.6232 172.594 40.9351 173.392 41.5589C174.19 42.1261 174.589 43.0335 174.589 44.2811C174.589 45.0751 174.275 46.5212 173.648 48.6195C173.022 50.7178 172.196 53.1847 171.17 56.0203C170.202 58.7993 169.12 61.7196 167.924 64.782C166.727 67.8444 165.502 70.7652 164.249 73.544C163.053 76.3228 161.942 78.6764 160.917 80.6044C160.518 80.9448 159.834 81.2284 158.866 81.4552C157.955 81.682 156.957 81.7957 155.875 81.7957C154.622 81.7957 153.511 81.5967 152.543 81.2C151.574 80.8596 150.919 80.3207 150.577 79.5836C149.951 78.3928 149.153 76.7201 148.185 74.5648C147.216 72.4095 146.163 69.9428 145.023 67.164C143.941 64.3852 142.83 61.5212 141.69 58.5725C140.608 55.5666 139.583 52.7027 138.614 49.9805C137.703 47.2584 136.962 44.8482 136.393 42.7499C136.848 42.1261 137.503 41.6157 138.358 41.2187C139.213 40.8217 140.095 40.6232 141.007 40.6232C142.26 40.6232 143.257 40.9068 143.998 41.4739C144.795 42.041 145.422 43.0618 145.878 44.5363L150.663 59.2528C151.118 60.6141 151.66 62.2015 152.286 64.0164C152.97 65.8312 153.625 67.6176 154.252 69.3756C154.878 71.1335 155.391 72.6085 155.79 73.7992H156.132C158.125 68.4116 160.005 62.9956 161.771 57.5515C163.594 52.0505 165.16 46.6913 166.471 41.4739C167.553 40.9068 168.835 40.6232 170.316 40.6232ZM181.836 58.7424L190.552 59.508V81.0301C190.21 81.1432 189.668 81.2853 188.928 81.4552C188.187 81.6252 187.39 81.7104 186.536 81.7104C184.94 81.7104 183.744 81.3984 182.947 80.7749C182.206 80.1508 181.836 79.13 181.836 77.7125V58.7424ZM190.552 63.8464L181.836 63.0808V25.9917C182.178 25.8783 182.718 25.7365 183.459 25.5664C184.2 25.3963 184.969 25.3112 185.767 25.3112C187.418 25.3112 188.614 25.6231 189.355 26.2469C190.152 26.8141 190.552 27.8349 190.552 29.3093V63.8464ZM215.918 75.5856C217.969 75.5856 219.706 75.3873 221.13 74.99C222.611 74.5364 223.694 74.1113 224.377 73.714V62.7404L214.892 63.6765C212.272 63.9033 210.278 64.4983 208.911 65.4629C207.601 66.37 206.946 67.7313 206.946 69.5461C206.946 71.4172 207.686 72.8921 209.168 73.9692C210.649 75.0468 212.899 75.5856 215.918 75.5856ZM215.661 40.1979C220.96 40.1979 225.146 41.3605 228.222 43.6856C231.356 45.9541 232.922 49.5552 232.922 54.4891V74.3096C232.922 75.614 232.637 76.6348 232.068 77.372C231.498 78.1092 230.701 78.7617 229.675 79.3284C228.194 80.1792 226.257 80.888 223.865 81.4552C221.529 82.0793 218.88 82.3908 215.918 82.3908C210.392 82.3908 206.063 81.3415 202.93 79.2437C199.853 77.0884 198.315 73.9407 198.315 69.8013C198.315 66.058 199.54 63.1945 201.99 61.2092C204.439 59.1676 207.914 57.9485 212.415 57.5515L224.377 56.3605V54.404C224.377 51.852 223.551 50.0089 221.899 48.8747C220.247 47.7405 217.997 47.1733 215.149 47.1733C212.87 47.1733 210.649 47.4853 208.484 48.1091C206.376 48.7329 204.496 49.4418 202.844 50.2357C202.331 49.7821 201.876 49.2433 201.477 48.6195C201.078 47.9389 200.879 47.2301 200.879 46.4928C200.879 44.7348 201.847 43.4021 203.784 42.4947C205.379 41.7575 207.202 41.1903 209.253 40.7933C211.361 40.3964 213.497 40.1979 215.661 40.1979ZM271.952 70.2264C271.952 74.026 270.529 77.0031 267.68 79.1584C264.889 81.3137 260.816 82.3908 255.461 82.3908C251.018 82.3908 247.372 81.7104 244.523 80.3492C241.675 78.9885 240.251 77.3436 240.251 75.4157C240.251 74.5648 240.45 73.7992 240.849 73.1189C241.305 72.3817 241.903 71.786 242.644 71.3325C244.238 72.3533 246.061 73.2888 248.112 74.1397C250.22 74.99 252.584 75.4157 255.205 75.4157C260.56 75.4157 263.237 73.714 263.237 70.3117C263.237 68.8367 262.781 67.6744 261.87 66.8236C260.958 65.9164 259.591 65.2361 257.768 64.782L251.787 63.2508C247.97 62.4005 245.15 61.0392 243.327 59.1676C241.504 57.2963 240.593 54.8861 240.593 51.9371C240.593 48.6479 241.931 45.869 244.609 43.6005C247.343 41.3321 251.302 40.1979 256.487 40.1979C259.164 40.1979 261.528 40.4815 263.579 41.0485C265.687 41.5589 267.31 42.2962 268.449 43.2603C269.645 44.2244 270.244 45.3019 270.244 46.4928C270.244 47.3435 270.044 48.1091 269.645 48.7896C269.247 49.4701 268.734 49.9805 268.107 50.3208C267.424 49.9239 266.512 49.4701 265.373 48.9597C264.233 48.4493 262.923 48.024 261.442 47.6837C260.018 47.3435 258.537 47.1733 256.999 47.1733C254.606 47.1733 252.698 47.5987 251.274 48.4493C249.907 49.2433 249.223 50.4059 249.223 51.9371C249.223 53.0146 249.622 53.9787 250.419 54.8293C251.217 55.6233 252.556 56.2188 254.436 56.6157L259.477 57.8917C263.749 58.8561 266.883 60.3589 268.876 62.4005C270.927 64.3852 271.952 66.9941 271.952 70.2264ZM279.473 58.7424H288.189V69.6308C288.189 71.6724 288.787 73.1189 289.983 73.9692C291.179 74.82 292.86 75.2452 295.024 75.2452C295.936 75.2452 296.962 75.1036 298.101 74.82C299.24 74.5364 300.18 74.1959 300.92 73.7992C301.319 74.1959 301.661 74.7063 301.946 75.3304C302.288 75.8977 302.458 76.5496 302.458 77.2868C302.458 78.7617 301.689 79.9809 300.151 80.9448C298.67 81.8519 296.42 82.3061 293.401 82.3061C289.185 82.3061 285.796 81.37 283.232 79.4989C280.726 77.6272 279.473 74.508 279.473 70.1412V58.7424ZM284.429 49.2149V42.2395H301.433C301.661 42.5797 301.861 43.0618 302.031 43.6856C302.259 44.3095 302.373 44.9616 302.373 45.6421C302.373 46.8331 302.088 47.7405 301.519 48.3643C301.006 48.9314 300.265 49.2149 299.297 49.2149H284.429ZM288.189 61.1245H279.473V30.4152C279.815 30.3018 280.356 30.16 281.096 29.9899C281.837 29.8197 282.635 29.7347 283.489 29.7347C285.084 29.7347 286.252 30.0466 286.993 30.6704C287.79 31.2943 288.189 32.3151 288.189 33.7328V61.1245ZM345.348 55.0845V63.506H336.547V55.4248C336.547 52.5893 335.749 50.5193 334.154 49.2149C332.559 47.9106 330.423 47.2584 327.745 47.2584C325.752 47.2584 323.957 47.5136 322.362 48.024C320.768 48.5344 319.4 49.1015 318.261 49.7253V63.506H309.46V49.5552C309.46 48.2509 309.716 47.2017 310.229 46.4077C310.798 45.5571 311.681 44.7631 312.877 44.0259C314.472 43.0618 316.552 42.1828 319.115 41.3888C321.679 40.5949 324.556 40.1979 327.745 40.1979C333.271 40.1979 337.572 41.4455 340.648 43.9408C343.782 46.3794 345.348 50.094 345.348 55.0845ZM309.46 59.0829H318.261V81.0301C317.862 81.1432 317.292 81.2853 316.552 81.4552C315.868 81.6252 315.099 81.7104 314.245 81.7104C312.649 81.7104 311.453 81.3984 310.656 80.7749C309.858 80.1508 309.46 79.13 309.46 77.7125V59.0829ZM336.547 59.0829H345.348V81.0301C344.949 81.1432 344.379 81.2853 343.639 81.4552C342.898 81.6252 342.129 81.7104 341.332 81.7104C339.68 81.7104 338.456 81.3984 337.658 80.7749C336.917 80.1508 336.547 79.13 336.547 77.7125V59.0829ZM358.646 66.1432L358.218 59.7632L382.486 56.3605C382.315 53.6951 381.375 51.4834 379.666 49.7253C377.957 47.9106 375.536 47.0032 372.403 47.0032C369.213 47.0032 366.564 48.1375 364.456 50.4059C362.348 52.6743 361.266 55.9069 361.209 60.1037L361.38 63.336C361.836 67.3624 363.288 70.3964 365.738 72.438C368.187 74.4233 371.406 75.4157 375.393 75.4157C377.786 75.4157 379.979 75.0468 381.973 74.3096C383.967 73.5724 385.562 72.7784 386.758 71.9276C387.442 72.3249 387.983 72.8637 388.382 73.544C388.838 74.2244 389.066 74.9615 389.066 75.7556C389.066 77.0031 388.439 78.1376 387.185 79.1584C385.932 80.1792 384.224 80.9732 382.059 81.5405C379.951 82.1071 377.558 82.3908 374.881 82.3908C370.494 82.3908 366.649 81.5967 363.345 80.0093C360.041 78.3644 357.478 75.9545 355.655 72.7784C353.832 69.5461 352.921 65.6044 352.921 60.954C352.921 57.6082 353.405 54.6592 354.373 52.1072C355.398 49.4985 356.794 47.3151 358.56 45.5571C360.326 43.7991 362.405 42.4663 364.798 41.5589C367.19 40.6516 369.754 40.1979 372.489 40.1979C376.077 40.1979 379.239 40.9635 381.973 42.4947C384.765 43.9692 386.929 46.0391 388.467 48.7045C390.005 51.37 390.774 54.404 390.774 57.8067C390.774 59.2244 390.433 60.2736 389.749 60.954C389.066 61.578 388.097 61.9748 386.844 62.1453L358.646 66.1432ZM370.609 30.6704L378.982 21.3981C380.635 21.3981 381.916 21.8235 382.828 22.6741C383.796 23.4681 384.281 24.3471 384.281 25.3112C384.281 26.2186 384.081 26.9842 383.682 27.608C383.283 28.1751 382.628 28.884 381.717 29.7347L373.855 37.0504C372.431 37.0504 371.292 36.6818 370.438 35.9445C369.583 35.2073 369.156 34.385 369.156 33.4776C369.156 32.9105 369.27 32.4285 369.497 32.0315C369.782 31.5778 370.153 31.1241 370.609 30.6704Z" fill="#161616"/>
</svg>
